<svg width="38" height="38" viewBox="0 0 38 38" fill="none" xmlns="http://www.w3.org/2000/svg">
    <path
        d="M14.4386 0.554676L14.865 2.28207C13.1843 2.69747 11.5756 3.3635 10.0931 4.25778L9.18084 2.73012C10.8126 1.74191 12.5856 1.00833 14.4386 0.554676ZM23.5614 0.554676L23.135 2.28207C24.8157 2.69747 26.4244 3.3635 27.9069 4.25778L28.83 2.73012C27.1939 1.74278 25.4175 1.00929 23.5614 0.554676ZM2.73009 9.17546C1.74281 10.8097 1.00931 12.5843 0.554653 14.4386L2.28205 14.8651C2.69745 13.1843 3.36348 11.5756 4.25776 10.0931L2.73009 9.17546ZM1.78002 19C1.77989 18.1363 1.84486 17.2737 1.97436 16.4197L0.214572 16.1498C-0.071524 18.0374 -0.071524 19.9573 0.214572 21.8448L1.97436 21.5803C1.84506 20.7263 1.7801 19.8638 1.78002 19ZM28.8192 35.2645L27.9069 33.7423C26.4267 34.6374 24.8197 35.3035 23.1404 35.718L23.5668 37.4454C25.4175 36.9874 27.1883 36.2521 28.8192 35.2645ZM36.22 19C36.2199 19.8638 36.1549 20.7263 36.0256 21.5803L37.7854 21.8448C38.0715 19.9573 38.0715 18.0374 37.7854 16.1498L36.0256 16.4197C36.1551 17.2737 36.2201 18.1363 36.22 19ZM37.4453 23.556L35.718 23.1296C35.3035 24.8124 34.6375 26.423 33.7422 27.9069L35.2699 28.8246C36.2581 27.1889 36.9917 25.4124 37.4453 23.556ZM21.5803 36.0257C19.8699 36.2848 18.1301 36.2848 16.4197 36.0257L16.1552 37.7854C18.0409 38.0716 19.9591 38.0716 21.8448 37.7854L21.5803 36.0257ZM32.8624 29.2132C31.8363 30.6046 30.6061 31.833 29.2132 32.857L30.2713 34.2929C31.8054 33.1635 33.1627 31.8117 34.2983 30.2821L32.8624 29.2132ZM29.2132 5.13767C30.6062 6.16359 31.8364 7.39381 32.8624 8.7868L34.2983 7.71797C33.1667 6.18697 31.8131 4.83334 30.2821 3.70177L29.2132 5.13767ZM5.13765 8.7868C6.16357 7.39381 7.39379 6.16359 8.78677 5.13767L7.71795 3.70177C6.18694 4.83334 4.83331 6.18697 3.70175 7.71797L5.13765 8.7868ZM35.2699 9.17546L33.7422 10.0931C34.6374 11.5733 35.3035 13.1803 35.718 14.8597L37.4453 14.4332C36.9907 12.5806 36.2571 10.8078 35.2699 9.17546ZM16.4197 1.97438C18.1301 1.71524 19.8699 1.71524 21.5803 1.97438L21.8448 0.214595C19.9591 -0.0715316 18.0409 -0.0715316 16.1552 0.214595L16.4197 1.97438ZM6.04993 34.7679L2.37382 35.6208L3.23212 31.9447L1.49932 31.5398L0.641023 35.216C0.58732 35.4439 0.579079 35.6801 0.61677 35.9112C0.654461 36.1423 0.737345 36.3637 0.860682 36.5628C0.984018 36.7618 1.14539 36.9346 1.33555 37.0712C1.52572 37.2078 1.74096 37.3056 1.96896 37.359C2.2356 37.4184 2.51204 37.4184 2.77867 37.359L6.45479 36.5115L6.04993 34.7679ZM1.86639 29.9528L3.60459 30.3522L4.19838 27.8043C3.33124 26.3498 2.68539 24.7743 2.28205 23.1296L0.554653 23.556C0.9432 25.1303 1.53094 26.6486 2.30364 28.0742L1.86639 29.9528ZM10.1795 33.807L7.63158 34.4008L8.03644 36.139L9.90958 35.7018C11.3341 36.4768 12.8527 37.0647 14.4278 37.4508L14.8543 35.7234C13.2147 35.3147 11.6448 34.6653 10.1957 33.7962L10.1795 33.807ZM19 3.56142C10.471 3.56682 3.5668 10.4818 3.5668 19.0054C3.5715 21.9086 4.39269 24.7519 5.93657 27.2105L4.45209 33.5479L10.7841 32.0634C18.0013 36.6033 27.5344 34.4386 32.0742 27.2267C36.614 20.0149 34.4548 10.4818 27.2429 5.93659C24.774 4.38399 21.9166 3.56063 19 3.56142Z"
        fill="white" />
</svg>